<svg id="SvgjsSvg1015" width="288" height="288" xmlns="http://www.w3.org/2000/svg" version="1.1" xmlns:xlink="http://www.w3.org/1999/xlink" xmlns:svgjs="http://svgjs.com/svgjs"><defs id="SvgjsDefs1016"></defs><g id="SvgjsG1017"><svg xmlns="http://www.w3.org/2000/svg" enable-background="new 0 0 100 100" viewBox="0 0 100 100" width="288" height="288"><polygon fill="#fbfcfc" points="13.605 19.711 13.605 31.683 13.605 92.5 86.395 92.5 86.395 31.683 86.395 19.711" class="colorfdfcfa svgShape"></polygon><rect width="9.893" height="15.666" x="28.64" y="7.5" fill="#a6afb4" class="colorf4c366 svgShape"></rect><rect width="9.893" height="15.666" x="61.467" y="7.5" fill="#a6afb4" class="colorf4c366 svgShape"></rect><path fill="#738289" d="M71.712,47.436c-0.586-0.586-1.535-0.586-2.121,0L43.462,73.565L30.409,60.512		c-0.586-0.586-1.535-0.586-2.121,0s-0.586,1.535,0,2.121l14.113,14.113c0.293,0.293,0.677,0.439,1.061,0.439
		s0.768-0.146,1.061-0.439l27.189-27.189C72.298,48.971,72.298,48.022,71.712,47.436z" class="colorcb3631 svgShape"></path><rect width="72.789" height="11.972" x="13.605" y="19.711" fill="#a6afb4" class="colorf47866 svgShape"></rect></svg></g></svg>