<svg id="SvgjsSvg1051" width="288" height="288" xmlns="http://www.w3.org/2000/svg" version="1.1" xmlns:xlink="http://www.w3.org/1999/xlink" xmlns:svgjs="http://svgjs.com/svgjs"><defs id="SvgjsDefs1052"></defs><g id="SvgjsG1053"><svg xmlns="http://www.w3.org/2000/svg" viewBox="0 0 64 64" width="288" height="288"><path fill="#95a2a9" d="M58.7,46H57.07V15.94a3.26,3.26,0,0,0-3.26-3.26H10.19a3.26,3.26,0,0,0-3.26,3.26V46H5.3a1.55,1.55,0,0,0-1.55,1.55v2.21A1.54,1.54,0,0,0,5.3,51.32H58.7a1.54,1.54,0,0,0,1.55-1.55V47.56A1.55,1.55,0,0,0,58.7,46Z" class="colorc07a53 svgShape"></path><rect width="29.33" height="42.14" x="17.33" y="10.28" fill="#66757d" transform="rotate(-90 32 31.35)" class="color00c081 svgShape"></rect><path fill="#e4e7e9" d="M18.28,42.29a1,1,0,0,1-1-1V37.81a1,1,0,0,1,2,0v3.48A1,1,0,0,1,18.28,42.29Zm3.86-1V38.66a1,1,0,0,0-2,0v2.63a1,1,0,0,0,2,0Z" class="colore7e7e6 svgShape"></path><path fill="#8a99a0" d="M6.93,42.83h4V46h-4ZM53.07,46h4V42.83h-4ZM23.48,42.24A1.24,1.24,0,0,0,22.24,41H17.18a1.25,1.25,0,0,0-1.25,1.25V46h7.55Zm24.59-1.3a1.3,1.3,0,0,0-1.3-1.29h-7a1.29,1.29,0,0,0-1.29,1.29v3.74h9.54Z" class="colora57051 svgShape"></path><rect width="9.54" height="3.18" x="38.53" y="42.83" fill="#e4e7e9" class="colore7e7e6 svgShape"></rect></svg></g></svg>