<svg id="SvgjsSvg1076" width="288" height="288" xmlns="http://www.w3.org/2000/svg" version="1.1" xmlns:xlink="http://www.w3.org/1999/xlink" xmlns:svgjs="http://svgjs.com/svgjs"><defs id="SvgjsDefs1077"></defs><g id="SvgjsG1078"><svg xmlns="http://www.w3.org/2000/svg" data-name="Layer 363" viewBox="0 0 48.57 47.07" width="288" height="288"><path fill="#76858c" d="M29.53 34.73a12.35 12.35 0 0 1-12.34 12.34h-4.85a12.29 12.29 0 0 1-8.72-3.61 12.34 12.34 0 0 1 8.73-21.07h4.85a12.36 12.36 0 0 1 12.34 12.35Z" class="colorffb703 svgShape"></path><circle cx="14.76" cy="7.9" r="7.9" fill="#728189" class="colorfb8500 svgShape"></circle><path fill="#8f9ca2" d="M47.11 9.4h-18a1.5 1.5 0 0 1 0-3h18a1.5 1.5 0 1 1 0 3zm0 7.85h-18a1.5 1.5 0 0 1 0-3h18a1.5 1.5 0 1 1 0 3zm0 7.94H34.53a1.5 1.5 0 0 1 0-3h12.58a1.5 1.5 0 1 1 0 3z" class="color4361ee svgShape"></path></svg></g></svg>