<svg id="SvgjsSvg1772" width="288" height="288" xmlns="http://www.w3.org/2000/svg" version="1.1" xmlns:xlink="http://www.w3.org/1999/xlink" xmlns:svgjs="http://svgjs.com/svgjs"><defs id="SvgjsDefs1773"></defs><g id="SvgjsG1774"><svg xmlns="http://www.w3.org/2000/svg" viewBox="0 0 24 24" width="288" height="288"><g data-name="Layer 2" fill="#c0c7cb" class="color000 svgShape"><path d="M9 11a4 4 0 1 0-4-4 4 4 0 0 0 4 4zm8 2a3 3 0 1 0-3-3 3 3 0 0 0 3 3zm4 7a1 1 0 0 0 1-1 5 5 0 0 0-8.06-3.95A7 7 0 0 0 2 20a1 1 0 0 0 1 1h12a1 1 0 0 0 1-1" data-name="people" fill="#c0c7cb" class="color000 svgShape"></path></g></svg></g></svg>