<svg id="SvgjsSvg1061" width="288" height="288" xmlns="http://www.w3.org/2000/svg" version="1.1" xmlns:xlink="http://www.w3.org/1999/xlink" xmlns:svgjs="http://svgjs.com/svgjs"><defs id="SvgjsDefs1062"></defs><g id="SvgjsG1063"><svg xmlns="http://www.w3.org/2000/svg" viewBox="0 0 400 400" width="288" height="288"><path fill="#0b4870" d="M308.576 149.339a6.07 6.07 0 0 0-2.03-4.508 6.078 6.078 0 0 0-4.721-1.481L96.593 167.515a6.043 6.043 0 0 0-5.333 6v54.37c0 23.843 68.352 30.207 108.74 30.207 40.386 0 108.74-6.364 108.74-30.207v-.012l-.164-78.534z" class="color0B4870 svgShape"></path><path fill="#0b4870" d="M308.576 167.474H199.834v90.616l.166.001c39.332 0 105.155-6.042 108.576-28.377v-62.24z" class="color0B4870 svgShape"></path><path fill="#0e538c" d="M380.066 115.983 225.469 62.977c-16.425-5.634-34.513-5.634-50.938 0L19.939 115.983c-7.438 2.548-12.254 9.276-12.254 17.144 0 7.864 4.815 14.593 12.254 17.141l154.593 53.004a78.578 78.578 0 0 0 25.469 4.225 78.518 78.518 0 0 0 25.468-4.225l154.599-53.004c7.44-2.548 12.248-9.276 12.248-17.141-.002-7.868-4.81-14.596-12.25-17.144z" class="color0E538C svgShape"></path><path fill="#2a94f4" d="M314.616 264.132a6.039 6.039 0 0 1-6.04-6.041v-78.936a6.045 6.045 0 0 0-4.082-5.717l-106.618-36.553a6.047 6.047 0 0 1-3.759-7.674c1.086-3.156 4.514-4.845 7.676-3.754l106.617 36.555a18.123 18.123 0 0 1 12.248 17.144v78.936a6.04 6.04 0 0 1-6.042 6.04z" class="color2A94F4 svgShape"></path><path fill="#ffbe55" d="M320.658 306.421h-12.082a6.04 6.04 0 0 1-6.041-6.042v-36.247c0-6.673 5.408-12.083 12.081-12.083 6.675 0 12.082 5.41 12.082 12.083v36.247a6.04 6.04 0 0 1-6.04 6.042z" class="colorFFBE55 svgShape"></path><path fill="#5c546a" d="M308.576 214.519c.042-.026.094-.05.136-.076l-.035-16.535c-.007.094-.085.201-.101.294v16.317z" class="color5C546A svgShape"></path><ellipse cx="200" cy="131.227" fill="#d3d3d3" rx="24.164" ry="12.082" class="colorD3D3D3 svgShape"></ellipse></svg></g></svg>