<svg id="SvgjsSvg1017" width="288" height="288" xmlns="http://www.w3.org/2000/svg" version="1.1" xmlns:xlink="http://www.w3.org/1999/xlink" xmlns:svgjs="http://svgjs.com/svgjs"><defs id="SvgjsDefs1018"></defs><g id="SvgjsG1019"><svg xmlns="http://www.w3.org/2000/svg" viewBox="0 0 400 400" width="288" height="288"><path fill="#fcd2b1" d="M312.756 327.017H87.245a9.717 9.717 0 0 1-9.722-9.722 9.717 9.717 0 0 1 9.722-9.721h225.511a9.716 9.716 0 0 1 9.722 9.721 9.716 9.716 0 0 1-9.722 9.722z" class="colorFCD2B1 svgShape"></path><path fill="#ffe3ca" d="M59.696 364.94c-4.842-2.326-6.873-8.125-4.556-12.968l46.666-97.854c2.354-4.85 8.145-6.892 12.987-4.556 4.842 2.324 6.871 8.126 4.557 12.968l-46.668 97.854c-2.349 4.845-8.148 6.874-12.986 4.556zm281.698 0c4.842-2.326 6.873-8.125 4.556-12.968l-46.666-97.854c-2.354-4.85-8.145-6.892-12.987-4.556-4.842 2.324-6.871 8.126-4.557 12.968l46.668 97.854c2.349 4.845 8.148 6.874 12.986 4.556z" class="colorFFE3CA svgShape"></path><path fill="#fcd2b1" d="M219.441 92.426h-38.883a9.717 9.717 0 0 1-9.72-9.722v-19.44c0-16.08 13.081-29.162 29.162-29.162 16.08 0 29.162 13.082 29.162 29.162v19.442a9.718 9.718 0 0 1-9.721 9.72z" class="colorFCD2B1 svgShape"></path><path fill="#22c55e" d="M336.737 268.045H63.264a9.714 9.714 0 0 1-9.721-9.721v-156.18c0-16.079 13.081-29.161 29.162-29.161h233.943c16.081 0 29.81 13.082 29.81 29.161v156.18a9.716 9.716 0 0 1-9.721 9.721z" class="color0B4870 svgShape"></path><path fill="#ffbe55" d="M297.206 264.972h-58.322a9.714 9.714 0 0 1-9.721-9.721v-38.883a9.714 9.714 0 0 1 9.721-9.72h58.322a9.715 9.715 0 0 1 9.722 9.72v38.883a9.715 9.715 0 0 1-9.722 9.721z" class="colorFFBE55 svgShape"></path><path fill="#fcd2b1" d="M356.179 269.045H43.821a9.715 9.715 0 0 1-9.721-9.721 9.715 9.715 0 0 1 9.721-9.72h312.357a9.715 9.715 0 0 1 9.721 9.72 9.715 9.715 0 0 1-9.72 9.721z" class="colorFCD2B1 svgShape"></path><path fill="#f7f7f7" d="M107.333 182.669c-.911 2.641-3.826 4.28-6.012 4.28-3.552 0-6.558-2.367-6.558-5.828 0-.455.092-1.549.273-2.005l17.761-51.823c1.184-3.553 3.006-6.193 7.377-6.193s6.193 2.551 7.469 6.193l17.76 51.823c.184.456.273 1.55.273 2.005 0 3.461-2.823 5.828-6.558 5.828-2.368 0-5.282-1.729-6.192-4.28l-3.188-9.199h-19.4l-3.005 9.199zm14.48-35.156c-.818-2.642-1.274-6.103-1.639-8.926-.365 2.823-.819 6.284-1.64 8.926l-4.827 15.574h12.751l-4.645-15.574zm67.668 38.617c-4.008 0-7.105-3.006-7.105-6.558v-51.096c0-3.733 3.28-6.558 7.105-6.558h15.393c13.662 0 20.492 8.743 20.492 17.853 0 6.375-4.099 10.292-9.562 12.934 5.646 2.276 11.294 6.374 11.294 14.298 0 10.657-8.562 19.127-22.588 19.127h-15.029zm16.123-39.072c3.187 0 7.013-2.187 7.013-7.104 0-3.461-1.641-6.558-6.376-6.558h-11.112v13.662h10.475zm-10.476 11.657v15.848h10.2c6.012 0 9.018-3.005 9.018-7.742 0-5.19-3.644-8.105-8.47-8.105h-10.748zm80.783 4.281c0 7.833 2.732 12.751 10.928 12.751 2.916 0 5.284-.729 7.561-2.186l.91-.547c1.186-.729 1.822-1.366 3.917-1.366 3.461 0 6.011 2.55 6.011 5.464 0 5.284-9.199 9.746-18.854 9.746-15.938 0-23.225-9.472-23.225-23.862v-18.034c0-14.391 7.286-23.862 23.225-23.862 9.654 0 18.854 4.463 18.854 9.745 0 2.915-2.55 5.465-6.011 5.465-2.095 0-2.731-.638-3.917-1.366l-.91-.546c-2.276-1.457-4.645-2.186-7.561-2.186-8.195 0-10.928 4.917-10.928 12.75v18.034z" class="colorF7F7F7 svgShape"></path></svg></g></svg>