<svg id="visual" viewBox="0 0 960 540" width="960" height="540" xmlns="http://www.w3.org/2000/svg" xmlns:xlink="http://www.w3.org/1999/xlink" version="1.1"><rect x="0" y="0" width="960" height="540" fill="#FFFFFF"></rect><defs><linearGradient id="grad1_0" x1="43.8%" y1="100%" x2="100%" y2="0%"><stop offset="14.444444444444446%" stop-color="#ef4444" stop-opacity="1"></stop><stop offset="85.55555555555554%" stop-color="#ef4444" stop-opacity="1"></stop></linearGradient></defs><defs><linearGradient id="grad1_1" x1="43.8%" y1="100%" x2="100%" y2="0%"><stop offset="14.444444444444446%" stop-color="#ef4444" stop-opacity="1"></stop><stop offset="85.55555555555554%" stop-color="#fb7a6f" stop-opacity="1"></stop></linearGradient></defs><defs><linearGradient id="grad1_2" x1="43.8%" y1="100%" x2="100%" y2="0%"><stop offset="14.444444444444446%" stop-color="#ffa89d" stop-opacity="1"></stop><stop offset="85.55555555555554%" stop-color="#fb7a6f" stop-opacity="1"></stop></linearGradient></defs><defs><linearGradient id="grad1_3" x1="43.8%" y1="100%" x2="100%" y2="0%"><stop offset="14.444444444444446%" stop-color="#ffa89d" stop-opacity="1"></stop><stop offset="85.55555555555554%" stop-color="#ffd4cd" stop-opacity="1"></stop></linearGradient></defs><defs><linearGradient id="grad1_4" x1="43.8%" y1="100%" x2="100%" y2="0%"><stop offset="14.444444444444446%" stop-color="#ffffff" stop-opacity="1"></stop><stop offset="85.55555555555554%" stop-color="#ffd4cd" stop-opacity="1"></stop></linearGradient></defs><defs><linearGradient id="grad2_0" x1="0%" y1="100%" x2="56.3%" y2="0%"><stop offset="14.444444444444446%" stop-color="#ef4444" stop-opacity="1"></stop><stop offset="85.55555555555554%" stop-color="#ef4444" stop-opacity="1"></stop></linearGradient></defs><defs><linearGradient id="grad2_1" x1="0%" y1="100%" x2="56.3%" y2="0%"><stop offset="14.444444444444446%" stop-color="#fb7a6f" stop-opacity="1"></stop><stop offset="85.55555555555554%" stop-color="#ef4444" stop-opacity="1"></stop></linearGradient></defs><defs><linearGradient id="grad2_2" x1="0%" y1="100%" x2="56.3%" y2="0%"><stop offset="14.444444444444446%" stop-color="#fb7a6f" stop-opacity="1"></stop><stop offset="85.55555555555554%" stop-color="#ffa89d" stop-opacity="1"></stop></linearGradient></defs><defs><linearGradient id="grad2_3" x1="0%" y1="100%" x2="56.3%" y2="0%"><stop offset="14.444444444444446%" stop-color="#ffd4cd" stop-opacity="1"></stop><stop offset="85.55555555555554%" stop-color="#ffa89d" stop-opacity="1"></stop></linearGradient></defs><defs><linearGradient id="grad2_4" x1="0%" y1="100%" x2="56.3%" y2="0%"><stop offset="14.444444444444446%" stop-color="#ffd4cd" stop-opacity="1"></stop><stop offset="85.55555555555554%" stop-color="#ffffff" stop-opacity="1"></stop></linearGradient></defs><g transform="translate(960, 540)"><path d="M-122 0C-127.5 -15 -133.1 -30.1 -128.4 -41.7C-123.7 -53.4 -108.9 -61.7 -98.7 -71.7C-88.5 -81.7 -83 -93.4 -73.5 -101.1C-63.9 -108.8 -50.3 -112.4 -37.4 -115.1C-24.5 -117.7 -12.2 -119.4 0 -121L0 0Z" fill="#ffe9e6"></path><path d="M-97.6 0C-102 -12 -106.4 -24 -102.7 -33.4C-99 -42.7 -87.1 -49.4 -79 -57.4C-70.8 -65.4 -66.4 -74.8 -58.8 -80.9C-51.1 -87 -40.2 -90 -29.9 -92.1C-19.6 -94.2 -9.8 -95.5 0 -96.8L0 0Z" fill="#ffbeb5"></path><path d="M-73.2 0C-76.5 -9 -79.8 -18 -77 -25C-74.2 -32 -65.3 -37 -59.2 -43C-53.1 -49 -49.8 -56.1 -44.1 -60.7C-38.4 -65.3 -30.2 -67.5 -22.4 -69C-14.7 -70.6 -7.3 -71.6 0 -72.6L0 0Z" fill="#ff9186"></path><path d="M-48.8 0C-51 -6 -53.2 -12 -51.4 -16.7C-49.5 -21.4 -43.6 -24.7 -39.5 -28.7C-35.4 -32.7 -33.2 -37.4 -29.4 -40.5C-25.6 -43.5 -20.1 -45 -15 -46C-9.8 -47.1 -4.9 -47.7 0 -48.4L0 0Z" fill="#f66159"></path><path d="M-24.4 0C-25.5 -3 -26.6 -6 -25.7 -8.3C-24.7 -10.7 -21.8 -12.3 -19.7 -14.3C-17.7 -16.3 -16.6 -18.7 -14.7 -20.2C-12.8 -21.8 -10.1 -22.5 -7.5 -23C-4.9 -23.5 -2.4 -23.9 0 -24.2L0 0Z" fill="#ef4444"></path></g><g transform="translate(0, 0)"><path d="M123 0C126.5 14.2 129.9 28.4 126.5 41.1C123.1 53.8 112.7 64.9 103.6 75.2C94.4 85.6 86.3 95.1 76.4 105.2C66.5 115.2 54.8 125.7 41.7 128.4C28.7 131.1 14.3 126.1 0 121L0 0Z" fill="#ffe9e6"></path><path d="M98.4 0C101.2 11.4 103.9 22.7 101.2 32.9C98.4 43 90.2 51.9 82.8 60.2C75.5 68.5 69.1 76.1 61.1 84.1C53.2 92.2 43.8 100.5 33.4 102.7C22.9 104.9 11.5 100.8 0 96.8L0 0Z" fill="#ffbeb5"></path><path d="M73.8 0C75.9 8.5 78 17.1 75.9 24.7C73.8 32.3 67.6 38.9 62.1 45.1C56.6 51.3 51.8 57.1 45.8 63.1C39.9 69.1 32.9 75.4 25 77C17.2 78.7 8.6 75.6 0 72.6L0 0Z" fill="#ff9186"></path><path d="M49.2 0C50.6 5.7 52 11.4 50.6 16.4C49.2 21.5 45.1 26 41.4 30.1C37.7 34.2 34.5 38.1 30.6 42.1C26.6 46.1 21.9 50.3 16.7 51.4C11.5 52.4 5.7 50.4 0 48.4L0 0Z" fill="#f66159"></path><path d="M24.6 0C25.3 2.8 26 5.7 25.3 8.2C24.6 10.8 22.5 13 20.7 15C18.9 17.1 17.3 19 15.3 21C13.3 23 11 25.1 8.3 25.7C5.7 26.2 2.9 25.2 0 24.2L0 0Z" fill="#ef4444"></path></g></svg>