<svg id="visual" viewBox="0 0 1349 250" width="1349" height="250" xmlns="http://www.w3.org/2000/svg" xmlns:xlink="http://www.w3.org/1999/xlink" version="1.1"><path d="M0 100L22.5 101C45 102 90 104 135 109C180 114 225 122 270 123.5C315 125 360 120 405 126C450 132 495 149 540 148.7C585 148.3 630 130.7 674.8 130.2C719.7 129.7 764.3 146.3 809.2 141.5C854 136.7 899 110.3 944 102.2C989 94 1034 104 1079 109.8C1124 115.7 1169 117.3 1214 123.2C1259 129 1304 139 1326.5 144L1349 149L1349 251L1326.5 251C1304 251 1259 251 1214 251C1169 251 1124 251 1079 251C1034 251 989 251 944 251C899 251 854 251 809.2 251C764.3 251 719.7 251 674.8 251C630 251 585 251 540 251C495 251 450 251 405 251C360 251 315 251 270 251C225 251 180 251 135 251C90 251 45 251 22.5 251L0 251Z" fill="#f7caca"></path><path d="M0 175L22.5 180.2C45 185.3 90 195.7 135 194.3C180 193 225 180 270 169.3C315 158.7 360 150.3 405 144.8C450 139.3 495 136.7 540 145.3C585 154 630 174 674.8 182.8C719.7 191.7 764.3 189.3 809.2 189.8C854 190.3 899 193.7 944 186.3C989 179 1034 161 1079 156.3C1124 151.7 1169 160.3 1214 160.7C1259 161 1304 153 1326.5 149L1349 145L1349 251L1326.5 251C1304 251 1259 251 1214 251C1169 251 1124 251 1079 251C1034 251 989 251 944 251C899 251 854 251 809.2 251C764.3 251 719.7 251 674.8 251C630 251 585 251 540 251C495 251 450 251 405 251C360 251 315 251 270 251C225 251 180 251 135 251C90 251 45 251 22.5 251L0 251Z" fill="#fa8c89"></path><path d="M0 200L22.5 198C45 196 90 192 135 193C180 194 225 200 270 205.3C315 210.7 360 215.3 405 215.5C450 215.7 495 211.3 540 205.8C585 200.3 630 193.7 674.8 191.3C719.7 189 764.3 191 809.2 194.7C854 198.3 899 203.7 944 199.7C989 195.7 1034 182.3 1079 182.2C1124 182 1169 195 1214 199.3C1259 203.7 1304 199.3 1326.5 197.2L1349 195L1349 251L1326.5 251C1304 251 1259 251 1214 251C1169 251 1124 251 1079 251C1034 251 989 251 944 251C899 251 854 251 809.2 251C764.3 251 719.7 251 674.8 251C630 251 585 251 540 251C495 251 450 251 405 251C360 251 315 251 270 251C225 251 180 251 135 251C90 251 45 251 22.5 251L0 251Z" fill="#ef4444"></path></svg>