<svg xmlns="http://www.w3.org/2000/svg" version="1.1" xmlns:xlink="http://www.w3.org/1999/xlink" xmlns:svgjs="http://svgjs.dev/svgjs" width="1440" height="560" preserveAspectRatio="none" viewBox="0 0 1440 560"><g mask="url(&quot;#SvgjsMask1017&quot;)" fill="none"><path d="M600 50L599 453" stroke-width="6" stroke="url(&quot;#SvgjsLinearGradient1018&quot;)" stroke-linecap="round" class="Down"></path><path d="M639 139L638 -269" stroke-width="10" stroke="url(&quot;#SvgjsLinearGradient1019&quot;)" stroke-linecap="round" class="Up"></path><path d="M640 368L639 58" stroke-width="6" stroke="url(&quot;#SvgjsLinearGradient1018&quot;)" stroke-linecap="round" class="Down"></path><path d="M1287 172L1286 -90" stroke-width="8" stroke="url(&quot;#SvgjsLinearGradient1018&quot;)" stroke-linecap="round" class="Down"></path><path d="M376 40L375 -160" stroke-width="6" stroke="url(&quot;#SvgjsLinearGradient1018&quot;)" stroke-linecap="round" class="Down"></path><path d="M271 519L270 868" stroke-width="10" stroke="url(&quot;#SvgjsLinearGradient1019&quot;)" stroke-linecap="round" class="Up"></path><path d="M968 180L967 491" stroke-width="8" stroke="url(&quot;#SvgjsLinearGradient1019&quot;)" stroke-linecap="round" class="Up"></path><path d="M1011 326L1010 520" stroke-width="6" stroke="url(&quot;#SvgjsLinearGradient1019&quot;)" stroke-linecap="round" class="Up"></path><path d="M1161 257L1160 463" stroke-width="8" stroke="url(&quot;#SvgjsLinearGradient1019&quot;)" stroke-linecap="round" class="Up"></path><path d="M1238 282L1237 -16" stroke-width="10" stroke="url(&quot;#SvgjsLinearGradient1018&quot;)" stroke-linecap="round" class="Down"></path><path d="M621 96L620 452" stroke-width="6" stroke="url(&quot;#SvgjsLinearGradient1018&quot;)" stroke-linecap="round" class="Down"></path><path d="M616 275L615 616" stroke-width="8" stroke="url(&quot;#SvgjsLinearGradient1019&quot;)" stroke-linecap="round" class="Up"></path><path d="M1159 462L1158 102" stroke-width="6" stroke="url(&quot;#SvgjsLinearGradient1018&quot;)" stroke-linecap="round" class="Down"></path><path d="M1349 49L1348 273" stroke-width="8" stroke="url(&quot;#SvgjsLinearGradient1019&quot;)" stroke-linecap="round" class="Up"></path><path d="M802 435L801 88" stroke-width="8" stroke="url(&quot;#SvgjsLinearGradient1018&quot;)" stroke-linecap="round" class="Down"></path><path d="M1032 318L1031 544" stroke-width="8" stroke="url(&quot;#SvgjsLinearGradient1019&quot;)" stroke-linecap="round" class="Up"></path><path d="M137 198L136 -182" stroke-width="10" stroke="url(&quot;#SvgjsLinearGradient1019&quot;)" stroke-linecap="round" class="Up"></path><path d="M803 300L802 474" stroke-width="8" stroke="url(&quot;#SvgjsLinearGradient1018&quot;)" stroke-linecap="round" class="Down"></path><path d="M995 78L994 470" stroke-width="8" stroke="url(&quot;#SvgjsLinearGradient1019&quot;)" stroke-linecap="round" class="Up"></path><path d="M325 321L324 704" stroke-width="8" stroke="url(&quot;#SvgjsLinearGradient1019&quot;)" stroke-linecap="round" class="Up"></path><path d="M612 320L611 527" stroke-width="10" stroke="url(&quot;#SvgjsLinearGradient1019&quot;)" stroke-linecap="round" class="Up"></path><path d="M645 119L644 -228" stroke-width="8" stroke="url(&quot;#SvgjsLinearGradient1018&quot;)" stroke-linecap="round" class="Down"></path><path d="M897 168L896 511" stroke-width="6" stroke="url(&quot;#SvgjsLinearGradient1018&quot;)" stroke-linecap="round" class="Down"></path><path d="M379 203L378 -98" stroke-width="6" stroke="url(&quot;#SvgjsLinearGradient1019&quot;)" stroke-linecap="round" class="Up"></path><path d="M268 249L267 -114" stroke-width="8" stroke="url(&quot;#SvgjsLinearGradient1018&quot;)" stroke-linecap="round" class="Down"></path><path d="M1008 189L1007 -143" stroke-width="8" stroke="url(&quot;#SvgjsLinearGradient1018&quot;)" stroke-linecap="round" class="Down"></path><path d="M473 205L472 415" stroke-width="10" stroke="url(&quot;#SvgjsLinearGradient1018&quot;)" stroke-linecap="round" class="Down"></path><path d="M1261 425L1260 25" stroke-width="10" stroke="url(&quot;#SvgjsLinearGradient1018&quot;)" stroke-linecap="round" class="Down"></path><path d="M501 479L500 643" stroke-width="8" stroke="url(&quot;#SvgjsLinearGradient1018&quot;)" stroke-linecap="round" class="Down"></path><path d="M626 434L625 686" stroke-width="8" stroke="url(&quot;#SvgjsLinearGradient1019&quot;)" stroke-linecap="round" class="Up"></path><path d="M1134 53L1133 -115" stroke-width="8" stroke="url(&quot;#SvgjsLinearGradient1019&quot;)" stroke-linecap="round" class="Up"></path><path d="M377 430L376 258" stroke-width="10" stroke="url(&quot;#SvgjsLinearGradient1018&quot;)" stroke-linecap="round" class="Down"></path><path d="M730 119L729 -95" stroke-width="6" stroke="url(&quot;#SvgjsLinearGradient1018&quot;)" stroke-linecap="round" class="Down"></path><path d="M1242 185L1241 -172" stroke-width="8" stroke="url(&quot;#SvgjsLinearGradient1018&quot;)" stroke-linecap="round" class="Down"></path><path d="M743 135L742 -258" stroke-width="6" stroke="url(&quot;#SvgjsLinearGradient1019&quot;)" stroke-linecap="round" class="Up"></path><path d="M779 530L778 897" stroke-width="8" stroke="url(&quot;#SvgjsLinearGradient1019&quot;)" stroke-linecap="round" class="Up"></path></g><defs><mask id="SvgjsMask1017"><rect width="1440" height="560" fill="#ffffff"></rect></mask><linearGradient x1="0%" y1="0%" x2="0%" y2="100%" id="SvgjsLinearGradient1018"><stop stop-color="rgba(240, 253, 244, 0)" offset="0"></stop><stop stop-color="rgba(240, 253, 244, 1)" offset="1"></stop></linearGradient><linearGradient x1="0%" y1="100%" x2="0%" y2="0%" id="SvgjsLinearGradient1019"><stop stop-color="rgba(240, 253, 244, 0)" offset="0"></stop><stop stop-color="rgba(240, 253, 244, 1)" offset="1"></stop></linearGradient></defs></svg>